<?xml version="1.0" encoding="utf-8"?>
<!-- Generator: Adobe Illustrator 16.0.0, SVG Export Plug-In . SVG Version: 6.00 Build 0)  -->
<!DOCTYPE svg PUBLIC "-//W3C//DTD SVG 1.1//EN" "http://www.w3.org/Graphics/SVG/1.1/DTD/svg11.dtd">
<svg version="1.1" id="Layer_1" xmlns="http://www.w3.org/2000/svg" xmlns:xlink="http://www.w3.org/1999/xlink" x="0px" y="0px"
	 width="25.94px" height="23.424px" viewBox="0 0 25.94 23.424" enable-background="new 0 0 25.94 23.424" xml:space="preserve">
<g>
	<path fill="#58595B" d="M9.006,5.679l3.41-3.399v14.826c0,0.406,0.325,0.731,0.733,0.731c0.407,0,0.733-0.325,0.733-0.731V2.279
		l3.409,3.399c0.141,0.142,0.331,0.216,0.516,0.216c0.19,0,0.375-0.069,0.516-0.216c0.287-0.287,0.287-0.747,0-1.034L13.664,0
		c-0.136-0.135-0.325-0.216-0.515-0.216c-0.196,0-0.381,0.076-0.516,0.216L7.974,4.645c-0.287,0.287-0.287,0.747,0,1.034
		C8.257,5.96,8.724,5.96,9.006,5.679"/>
	<path fill="#58595B" d="M25.207,11.309c-0.407,0-0.733,0.325-0.733,0.731v6.646c0,1.808-1.477,3.275-3.285,3.275H5.108
		c-1.814,0-3.285-1.473-3.285-3.275v-6.755c0-0.406-0.326-0.731-0.733-0.731c-0.407,0-0.733,0.325-0.733,0.731v6.755
		c0,2.615,2.134,4.737,4.751,4.737h16.081c2.623,0,4.751-2.127,4.751-4.737V12.04C25.94,11.639,25.614,11.309,25.207,11.309"/>
</g>
</svg>
